<svg width="147" height="122" viewBox="0 0 147 122" fill="none" xmlns="http://www.w3.org/2000/svg">
<path fill-rule="evenodd" clip-rule="evenodd" d="M68.8882 68.127L61.1059 55.8208L71.4824 47.7642L54.7647 8.63208L45.5412 0L8.64706 21.2925L0 35.6792L17.8706 52.9434L32.2824 68.127L47.2706 66.1792L49.5765 63.8774L60.3853 75.9623L68.8882 68.127ZM16.1412 28.7736L8.64706 33.3774L30.5529 58.6981L35.1647 51.7925L16.1412 28.7736ZM35.1647 16.6887L23.6353 23.5943L41.5059 48.9151L49.5765 45.4623L35.1647 16.6887ZM49.5765 10.934L43.2353 13.2358L53.0353 42.0094L59.3765 40.8585L49.5765 10.934Z" fill="#6F6F6D"/>
<path d="M68.8882 90.0613L85.3176 108.189L94.5412 117.396L109.529 108.189L102.035 97.8302L81.8588 85.7453L78.5441 80.9976L68.8882 90.0613Z" fill="#6F6F6D"/>
<path d="M91.0824 54.6698L97.4235 33.3774C102.804 28.3899 114.141 18.4151 116.447 18.4151C119.329 18.4151 129.706 18.9906 130.859 20.1415C131.781 21.0623 133.549 37.4057 134.318 45.4623L124.518 51.7925L111.835 55.8208L97.4235 60.4245L91.0824 54.6698Z" fill="#E6B854"/>
<path fill-rule="evenodd" clip-rule="evenodd" d="M94.5412 18.4151L77.2471 60.4245L68.8882 68.127L60.3853 75.9623L32.2824 101.858L23.6353 108.189L32.2824 122L49.5765 108.189L68.8882 90.0613L78.5441 80.9976L88.2 71.934L109.529 63.8774L139.506 52.9434L147 23.5943L121.635 4.0283L94.5412 18.4151ZM97.4235 33.3774L91.0824 54.6698L97.4235 60.4245L111.835 55.8208L124.518 51.7925L134.318 45.4623C133.549 37.4057 131.781 21.0623 130.859 20.1415C129.706 18.9906 119.329 18.4151 116.447 18.4151C114.141 18.4151 102.804 28.3899 97.4235 33.3774Z" fill="#F7CD72"/>
</svg>
